<svg width="256" height="256" viewBox="0 0 256 256" fill="none" xmlns="http://www.w3.org/2000/svg">
<g clip-path="url(#clip0_32_73)">
<path d="M128.297 256.291C198.988 256.291 256.296 198.985 256.296 128.293C256.296 57.6015 198.988 0.294922 128.297 0.294922C57.6039 0.294922 0.296387 57.6015 0.296387 128.293C0.296387 198.985 57.6039 256.291 128.297 256.291Z" fill="#FF570A"/>
<path d="M215.216 107.091C215.216 107.091 197.382 84.293 174.964 82.9893C160.497 82.1354 156.992 84.0681 156.364 85.5076C155.466 78.0438 149.086 43.4641 105.014 36.1357C110.64 76.579 133.875 66.0409 147.559 93.9162C147.559 93.9162 124.468 62.5302 86.5048 74.086C86.5048 74.086 100.342 103.134 141.269 109.07C141.269 109.07 144.549 120.311 145.538 122.29C145.538 122.29 82.5061 89.4195 63.3674 152.507C49.124 149.28 44.3464 164.742 60.7173 175.304C60.7173 175.304 63.5029 164.242 70.2858 160.96C70.2858 160.96 55.7298 177.193 72.8466 196.635H134.282C135.766 194.176 142.336 181.239 126.087 171.446C137.557 171.282 146.894 192.917 156.938 196.784H171.548C172.042 195.583 173.076 191.986 170.649 188.749C166.908 184.458 158.716 185.038 158.789 177.103C161.618 140.184 216.976 151.522 215.216 107.091Z" fill="#FEFEFE"/>
</g>
<defs>
<clipPath id="clip0_32_73">
<rect width="256" height="256" fill="white"/>
</clipPath>
</defs>
</svg>
