<svg width="256" height="256" viewBox="0 0 256 256" fill="none" xmlns="http://www.w3.org/2000/svg">
<path d="M128 3C57.2858 3 0 60.2858 0 131C0 187.634 36.6429 235.483 87.5171 252.437C93.9171 253.554 96.3142 249.726 96.3142 246.363C96.3142 243.314 96.1629 233.237 96.1629 222.52C64 228.443 55.68 214.677 53.12 207.486C51.6771 203.797 45.44 192.44 40.0058 189.403C35.5258 186.994 29.1142 181.083 39.8429 180.92C49.92 180.757 57.1229 190.194 59.52 194.046C71.04 213.397 89.4371 207.963 96.8029 204.6C97.92 196.28 101.283 190.683 104.96 187.483C76.4742 184.283 46.72 173.24 46.72 124.274C46.72 110.357 51.6771 98.8371 59.8458 89.8771C58.5542 86.6771 54.0742 73.5629 61.1258 55.9571C61.1258 55.9571 71.8429 52.6058 96.3142 69.0829C106.734 66.1929 117.501 64.7404 128.314 64.7658C139.206 64.7658 150.086 66.1971 160.314 69.0829C184.797 52.4429 195.514 55.9571 195.514 55.9571C202.554 73.5629 198.086 86.6771 196.806 89.8771C204.963 98.8371 209.92 110.206 209.92 124.274C209.92 173.403 180.003 184.283 151.517 187.483C156.16 191.486 160.163 199.166 160.163 211.163C160.163 228.28 160 242.046 160 246.363C160 249.726 162.397 253.717 168.797 252.437C219.357 235.483 256 187.483 256 131C256 60.2858 198.726 3 128 3Z" fill="white"/>
</svg>
