<svg width="256" height="256" viewBox="0 0 256 256" fill="none" xmlns="http://www.w3.org/2000/svg">
<g clip-path="url(#clip0_32_85)">
<path d="M118.939 98.3844C121.341 95.9832 124.599 94.6344 127.996 94.6344C131.392 94.6344 134.65 95.9832 137.052 98.3844L157.618 118.949C160.019 121.351 161.368 124.609 161.368 128.005C161.368 131.402 160.019 134.659 157.618 137.062L137.052 157.611C134.65 160.012 131.392 161.361 127.996 161.361C124.599 161.361 121.341 160.012 118.939 157.611L98.3737 137.062C95.9724 134.659 94.6235 131.402 94.6235 128.005C94.6235 124.609 95.9724 121.351 98.3737 118.949L118.939 98.3844ZM213.643 98.2158C218.547 93.3122 226.516 93.3122 231.435 98.2158L252.322 119.102C257.226 124.006 257.226 131.974 252.322 136.893L231.435 157.78C229.076 160.139 225.876 161.464 222.539 161.464C219.203 161.464 216.003 160.139 213.643 157.78L192.756 136.893C190.397 134.534 189.072 131.334 189.072 127.998C189.072 124.661 190.397 121.462 192.756 119.102L213.643 98.2158Z" fill="#A950FF"/>
<path d="M119.107 3.68301C120.274 2.5154 121.66 1.58916 123.185 0.95721C124.71 0.325263 126.345 0 127.996 0C129.646 0 131.281 0.325263 132.806 0.95721C134.331 1.58916 135.717 2.5154 136.884 3.68301L157.786 24.5694C162.69 29.4731 162.69 37.4415 157.786 42.3451L136.884 63.2469C135.717 64.4145 134.331 65.3407 132.806 65.9727C131.281 66.6046 129.646 66.9299 127.996 66.9299C126.345 66.9299 124.71 66.6046 123.185 65.9727C121.66 65.3407 120.274 64.4145 119.107 63.2469L98.2203 42.3604C97.0503 41.1932 96.1221 39.8067 95.4888 38.2803C94.8555 36.7539 94.5295 35.1175 94.5295 33.4649C94.5295 31.8124 94.8555 30.176 95.4888 28.6496C96.1221 27.1231 97.0503 25.7366 98.2203 24.5694L119.107 3.68301Z" fill="#E9C1FF"/>
<path d="M110.357 71.6745C112.759 74.0768 114.107 77.3344 114.107 80.7309C114.107 84.1275 112.759 87.385 110.357 89.7873L89.792 110.352C87.3896 112.753 84.132 114.102 80.7353 114.102C77.3386 114.102 74.081 112.753 71.6786 110.352L51.098 89.7873C48.6967 87.385 47.3478 84.1275 47.3478 80.7309C47.3478 77.3344 48.6967 74.0768 51.098 71.6745L71.6786 51.1099C74.081 48.7087 77.3386 47.3599 80.7353 47.3599C84.132 47.3599 87.3896 48.7087 89.792 51.1099L110.357 71.6745Z" fill="#CD88FF"/>
<path d="M63.2349 119.102C68.1387 124.006 68.1387 131.975 63.2349 136.894L42.3631 157.78C41.1962 158.948 39.8106 159.874 38.2855 160.506C36.7605 161.138 35.1258 161.463 33.475 161.463C31.8242 161.463 30.1895 161.138 28.6645 160.506C27.1394 159.874 25.7538 158.948 24.5869 157.78L3.68445 136.894C1.32532 134.534 0 131.334 0 127.998C0 124.662 1.32532 121.462 3.68445 119.102L24.5715 98.2161C25.7388 97.0462 27.1253 96.118 28.6518 95.4847C30.1783 94.8514 31.8147 94.5254 33.4673 94.5254C35.12 94.5254 36.7564 94.8514 38.2829 95.4847C39.8093 96.118 41.1959 97.0462 42.3631 98.2161L63.2502 119.102H63.2349Z" fill="#A950FF"/>
<path d="M204.893 71.6745C207.294 74.0768 208.643 77.3344 208.643 80.7309C208.643 84.1275 207.294 87.385 204.893 89.7873L184.328 110.352C181.925 112.753 178.668 114.102 175.271 114.102C171.874 114.102 168.617 112.753 166.214 110.352L145.649 89.7873C143.248 87.385 141.899 84.1275 141.899 80.7309C141.899 77.3344 143.248 74.0768 145.649 71.6745L166.214 51.1099C168.617 48.7087 171.874 47.3599 175.271 47.3599C178.668 47.3599 181.925 48.7087 184.328 51.1099L204.893 71.6745Z" fill="#CD88FF"/>
<path d="M148.239 206.708C150.895 209.365 153.002 212.52 154.44 215.991C155.877 219.463 156.616 223.184 156.616 226.941C156.615 230.698 155.874 234.419 154.436 237.89C152.997 241.361 150.889 244.514 148.231 247.171C145.574 249.827 142.419 251.934 138.948 253.371C135.476 254.808 131.755 255.548 127.998 255.547C124.24 255.546 120.52 254.805 117.049 253.367C113.578 251.928 110.424 249.82 107.767 247.163C102.543 241.77 99.6491 234.539 99.709 227.03C99.769 219.522 102.778 212.338 108.088 207.029C113.398 201.719 120.582 198.71 128.09 198.65C135.599 198.59 142.83 201.484 148.224 206.708H148.239Z" fill="#F62E76"/>
</g>
<defs>
<clipPath id="clip0_32_85">
<rect width="256" height="256" fill="white"/>
</clipPath>
</defs>
</svg>
