<svg width="256" height="256" viewBox="0 0 256 256" fill="none" xmlns="http://www.w3.org/2000/svg">
<path d="M128.501 43.5078C147.411 43.5272 165.773 49.8653 180.669 61.5146C195.48 73.0977 206.019 89.2719 210.638 107.492C235.527 111.556 254.438 133.395 254.438 159.959C254.438 189.422 231.194 213.159 202.292 213.159H74.7354C73.219 213.152 71.7197 213.079 70.2373 212.939C68.5794 213.078 66.9166 213.151 65.2529 213.159H65.25C48.3446 213.159 32.1317 206.443 20.1777 194.489C8.22383 182.535 1.50781 166.322 1.50781 149.417L1.5127 148.709C1.68521 133.847 7.04661 119.504 16.6816 108.168C26.4186 96.7122 39.8899 89.0695 54.7129 86.585C62.0804 73.5543 72.7651 62.7031 85.6846 55.1367C98.672 47.5307 113.449 43.5171 128.5 43.5078H128.501Z" fill="white" stroke="white" stroke-width="0.983962" stroke-linejoin="round"/>
</svg>
